<svg width="433" height="512" viewBox="0 0 433 512" fill="none" xmlns="http://www.w3.org/2000/svg">
<path d="M382.867 157.379L402.941 137.305C410.742 129.504 410.742 116.855 402.941 109.059C395.141 101.258 382.496 101.258 374.695 109.059L354.621 129.133C320.941 101.07 280.016 84.1172 236.359 80.1484V39.9492H255.668C266.699 39.9492 275.641 31.0039 275.641 19.9727C275.641 8.94141 266.699 0 255.668 0H177.102C166.07 0 157.129 8.94141 157.129 19.9727C157.129 31.0039 166.07 39.9492 177.102 39.9492H196.41V80.1484C87.1289 90.0859 0 181.891 0 295.613C0 415.207 96.7773 512 216.387 512C335.977 512 432.77 415.223 432.77 295.613C432.77 244.527 415.176 196.148 382.867 157.379V157.379ZM216.383 472.051C119.098 472.051 39.9453 392.902 39.9453 295.613C39.9453 198.328 119.098 119.18 216.383 119.18C313.672 119.18 392.82 198.328 392.82 295.613C392.82 392.902 313.672 472.051 216.383 472.051ZM308.949 203.051C316.75 210.852 316.75 223.5 308.949 231.297L230.508 309.738C222.707 317.539 210.059 317.539 202.262 309.738C194.461 301.938 194.461 289.289 202.262 281.492L280.699 203.051C288.5 195.25 301.148 195.25 308.949 203.051V203.051Z" fill="url(#paint0_linear)"/>
<defs>
<linearGradient id="paint0_linear" x1="216" y1="115.5" x2="216" y2="584.5" gradientUnits="userSpaceOnUse">
<stop stop-color="#46D4AD"/>
<stop offset="1" stop-color="#0F0E17"/>
</linearGradient>
</defs>
</svg>
